<?xml version="1.0" encoding="UTF-8" standalone="no"?>
<svg
   xmlns:dc="http://purl.org/dc/elements/1.1/"
   xmlns:cc="http://creativecommons.org/ns#"
   xmlns:rdf="http://www.w3.org/1999/02/22-rdf-syntax-ns#"
   xmlns:svg="http://www.w3.org/2000/svg"
   xmlns="http://www.w3.org/2000/svg"
   xmlns:sodipodi="http://sodipodi.sourceforge.net/DTD/sodipodi-0.dtd"
   xmlns:inkscape="http://www.inkscape.org/namespaces/inkscape"
   width="161.99751mm"
   height="175.29735mm"
   viewBox="0 0 161.99751 175.29735"
   version="1.1"
   id="svg8"
   inkscape:version="1.0.1 (1.0.1+r75)"
   sodipodi:docname="README.svg">
  <defs
     id="defs2">
    <marker
       inkscape:stockid="Arrow1Lend"
       orient="auto"
       refY="0"
       refX="0"
       id="marker1674"
       style="overflow:visible"
       inkscape:isstock="true">
      <path
         id="path1672"
         d="M 0,0 5,-5 -12.5,0 5,5 Z"
         style="fill:#000000;fill-opacity:1;fill-rule:evenodd;stroke:#000000;stroke-width:1pt;stroke-opacity:1"
         transform="matrix(-0.8,0,0,-0.8,-10,0)" />
    </marker>
    <marker
       inkscape:stockid="Arrow1Lend"
       orient="auto"
       refY="0"
       refX="0"
       id="marker1614"
       style="overflow:visible"
       inkscape:isstock="true">
      <path
         id="path1612"
         d="M 0,0 5,-5 -12.5,0 5,5 Z"
         style="fill:#000000;fill-opacity:1;fill-rule:evenodd;stroke:#000000;stroke-width:1pt;stroke-opacity:1"
         transform="matrix(-0.8,0,0,-0.8,-10,0)" />
    </marker>
    <marker
       inkscape:isstock="true"
       style="overflow:visible"
       id="marker1560"
       refX="0"
       refY="0"
       orient="auto"
       inkscape:stockid="Arrow1Lend"
       inkscape:collect="always">
      <path
         transform="matrix(-0.8,0,0,-0.8,-10,0)"
         style="fill:#000000;fill-opacity:1;fill-rule:evenodd;stroke:#000000;stroke-width:1pt;stroke-opacity:1"
         d="M 0,0 5,-5 -12.5,0 5,5 Z"
         id="path1558" />
    </marker>
    <marker
       inkscape:stockid="Arrow1Lend"
       orient="auto"
       refY="0"
       refX="0"
       id="marker1443"
       style="overflow:visible"
       inkscape:isstock="true">
      <path
         id="path1441"
         d="M 0,0 5,-5 -12.5,0 5,5 Z"
         style="fill:#000000;fill-opacity:1;fill-rule:evenodd;stroke:#000000;stroke-width:1pt;stroke-opacity:1"
         transform="matrix(-0.8,0,0,-0.8,-10,0)" />
    </marker>
    <marker
       inkscape:stockid="Arrow1Lend"
       orient="auto"
       refY="0"
       refX="0"
       id="Arrow1Lend"
       style="overflow:visible"
       inkscape:isstock="true"
       inkscape:collect="always">
      <path
         id="path838"
         d="M 0,0 5,-5 -12.5,0 5,5 Z"
         style="fill:#000000;fill-opacity:1;fill-rule:evenodd;stroke:#000000;stroke-width:1pt;stroke-opacity:1"
         transform="matrix(-0.8,0,0,-0.8,-10,0)" />
    </marker>
    <marker
       inkscape:isstock="true"
       style="overflow:visible"
       id="Arrow1Lend-6"
       refX="0"
       refY="0"
       orient="auto"
       inkscape:stockid="Arrow1Lend"
       inkscape:collect="always">
      <path
         transform="matrix(-0.8,0,0,-0.8,-10,0)"
         style="fill:#000000;fill-opacity:1;fill-rule:evenodd;stroke:#000000;stroke-width:1pt;stroke-opacity:1"
         d="M 0,0 5,-5 -12.5,0 5,5 Z"
         id="path838-7" />
    </marker>
    <marker
       inkscape:isstock="true"
       style="overflow:visible"
       id="Arrow1Lend-9"
       refX="0"
       refY="0"
       orient="auto"
       inkscape:stockid="Arrow1Lend">
      <path
         transform="matrix(-0.8,0,0,-0.8,-10,0)"
         style="fill:#000000;fill-opacity:1;fill-rule:evenodd;stroke:#000000;stroke-width:1pt;stroke-opacity:1"
         d="M 0,0 5,-5 -12.5,0 5,5 Z"
         id="path838-1" />
    </marker>
    <marker
       inkscape:isstock="true"
       style="overflow:visible"
       id="marker1443-2"
       refX="0"
       refY="0"
       orient="auto"
       inkscape:stockid="Arrow1Lend">
      <path
         transform="matrix(-0.8,0,0,-0.8,-10,0)"
         style="fill:#000000;fill-opacity:1;fill-rule:evenodd;stroke:#000000;stroke-width:1pt;stroke-opacity:1"
         d="M 0,0 5,-5 -12.5,0 5,5 Z"
         id="path1441-6" />
    </marker>
  </defs>
  <sodipodi:namedview
     id="base"
     pagecolor="#ffffff"
     bordercolor="#666666"
     borderopacity="1.0"
     inkscape:pageopacity="0.0"
     inkscape:pageshadow="2"
     inkscape:zoom="0.7"
     inkscape:cx="485.3037"
     inkscape:cy="341.41672"
     inkscape:document-units="mm"
     inkscape:current-layer="layer1"
     inkscape:document-rotation="0"
     showgrid="false"
     inkscape:window-width="1299"
     inkscape:window-height="713"
     inkscape:window-x="67"
     inkscape:window-y="27"
     inkscape:window-maximized="1" />
  <metadata
     id="metadata5">
    <rdf:RDF>
      <cc:Work
         rdf:about="">
        <dc:format>image/svg+xml</dc:format>
        <dc:type
           rdf:resource="http://purl.org/dc/dcmitype/StillImage" />
        <dc:title />
      </cc:Work>
    </rdf:RDF>
  </metadata>
  <g
     inkscape:label="Livello 1"
     inkscape:groupmode="layer"
     id="layer1"
     transform="translate(-5.0775667,-18.188988)">
    <path
       style="fill:none;fill-opacity:0.383355;stroke:#000000;stroke-width:0.720277;stroke-miterlimit:4;stroke-dasharray:none;stroke-opacity:1;marker-end:url(#Arrow1Lend)"
       id="path833"
       sodipodi:type="arc"
       sodipodi:cx="138.9201"
       sodipodi:cy="62.629898"
       sodipodi:rx="17.726101"
       sodipodi:ry="17.943521"
       sodipodi:start="0.65475192"
       sodipodi:end="5.8089354"
       sodipodi:arc-type="arc"
       d="m 152.98043,73.55683 a 17.726101,17.943521 0 0 1 -20.51168,5.78602 17.726101,17.943521 0 0 1 -11.2026,-18.330175 17.726101,17.943521 0 0 1 14.27143,-15.99658 17.726101,17.943521 0 0 1 19.15229,9.419512"
       sodipodi:open="true" />
    <text
       xml:space="preserve"
       style="font-style:normal;font-weight:normal;font-size:10.5833px;line-height:1.25;font-family:sans-serif;fill:#000000;fill-opacity:1;stroke:none;stroke-width:0.264583"
       x="118.40632"
       y="31.57753"
       id="text1113"><tspan
         sodipodi:role="line"
         id="tspan1111"
         x="118.40632"
         y="31.57753"
         style="stroke-width:0.264583">Client A</tspan></text>
    <rect
       style="fill:none;fill-opacity:0.383355;stroke:#000000;stroke-width:0.5;stroke-miterlimit:4;stroke-dasharray:none;stroke-opacity:1"
       id="rect1115"
       width="54.461052"
       height="18.500921"
       x="112.36403"
       y="18.438988" />
    <rect
       y="37.197269"
       x="112.62138"
       height="54.848862"
       width="53.946339"
       id="rect1115-3"
       style="fill:none;fill-opacity:0.383355;stroke:#000000;stroke-width:0.5;stroke-miterlimit:4;stroke-dasharray:none;stroke-opacity:1" />
    <path
       sodipodi:open="true"
       d="m 152.72306,174.74705 a 17.726101,17.943521 0 0 1 -20.51168,5.78602 17.726101,17.943521 0 0 1 -11.2026,-18.33018 17.726101,17.943521 0 0 1 14.27143,-15.99658 17.726101,17.943521 0 0 1 19.15229,9.41951"
       sodipodi:arc-type="arc"
       sodipodi:end="5.8089354"
       sodipodi:start="0.65475192"
       sodipodi:ry="17.943521"
       sodipodi:rx="17.726101"
       sodipodi:cy="163.82011"
       sodipodi:cx="138.66273"
       sodipodi:type="arc"
       id="path833-5"
       style="fill:none;fill-opacity:0.383355;stroke:#000000;stroke-width:0.720278;stroke-miterlimit:4;stroke-dasharray:none;stroke-opacity:1;marker-end:url(#Arrow1Lend-6)" />
    <text
       id="text1113-3"
       y="132.76775"
       x="118.14895"
       style="font-style:normal;font-weight:normal;font-size:10.5833px;line-height:1.25;font-family:sans-serif;fill:#000000;fill-opacity:1;stroke:none;stroke-width:0.264583"
       xml:space="preserve"><tspan
         style="stroke-width:0.264583"
         y="132.76775"
         x="118.14895"
         id="tspan1111-5"
         sodipodi:role="line">Client B</tspan></text>
    <rect
       y="119.62921"
       x="112.10667"
       height="18.500921"
       width="54.461052"
       id="rect1115-6"
       style="fill:none;fill-opacity:0.383355;stroke:#000000;stroke-width:0.499999;stroke-miterlimit:4;stroke-dasharray:none;stroke-opacity:1" />
    <rect
       style="fill:none;fill-opacity:0.383355;stroke:#000000;stroke-width:0.499999;stroke-miterlimit:4;stroke-dasharray:none;stroke-opacity:1"
       id="rect1115-3-2"
       width="53.946339"
       height="54.848862"
       x="112.36402"
       y="138.38748" />
    <path
       sodipodi:open="true"
       d="M 45.943972,125.55515 A 17.726101,17.943521 0 0 1 25.432294,131.34117 17.726101,17.943521 0 0 1 14.229688,113.011 17.726101,17.943521 0 0 1 28.501116,97.014416 17.726101,17.943521 0 0 1 47.653415,106.43393"
       sodipodi:arc-type="arc"
       sodipodi:end="5.8089354"
       sodipodi:start="0.65475192"
       sodipodi:ry="17.943521"
       sodipodi:rx="17.726101"
       sodipodi:cy="114.62822"
       sodipodi:cx="31.883646"
       sodipodi:type="arc"
       id="path833-2"
       style="fill:none;fill-opacity:0.383355;stroke:#000000;stroke-width:0.720278;stroke-miterlimit:4;stroke-dasharray:none;stroke-opacity:1;marker-end:url(#Arrow1Lend-9)" />
    <text
       id="text1113-7"
       y="83.575867"
       x="11.369856"
       style="font-style:normal;font-weight:normal;font-size:10.5833px;line-height:1.25;font-family:sans-serif;fill:#000000;fill-opacity:1;stroke:none;stroke-width:0.264583"
       xml:space="preserve"><tspan
         style="stroke-width:0.264583"
         y="83.575867"
         x="11.369856"
         id="tspan1111-0"
         sodipodi:role="line">Server</tspan></text>
    <rect
       y="70.437317"
       x="5.3275661"
       height="18.500921"
       width="54.461052"
       id="rect1115-9"
       style="fill:none;fill-opacity:0.383355;stroke:#000000;stroke-width:0.499999;stroke-miterlimit:4;stroke-dasharray:none;stroke-opacity:1" />
    <rect
       style="fill:none;fill-opacity:0.383355;stroke:#000000;stroke-width:0.499999;stroke-miterlimit:4;stroke-dasharray:none;stroke-opacity:1"
       id="rect1115-3-3"
       width="53.946339"
       height="54.848862"
       x="5.5849209"
       y="89.195602" />
    <path
       style="fill:none;stroke:#000000;stroke-width:0.5;stroke-linecap:butt;stroke-linejoin:miter;stroke-miterlimit:4;stroke-dasharray:none;stroke-opacity:1;marker-end:url(#marker1443)"
       d="m 120.22812,61.495254 c 0,0 -16.03841,-1.895438 -36.054228,9.660699 -20.015818,11.55614 -36.520476,35.277977 -36.520476,35.277977"
       id="path1439" />
    <path
       style="fill:none;stroke:#000000;stroke-width:0.5;stroke-linecap:butt;stroke-linejoin:miter;stroke-miterlimit:4;stroke-dasharray:none;stroke-opacity:1;marker-end:url(#marker1560)"
       d="m 124.87232,151.09354 c 0,0 -8.53094,-18.39026 -31.858341,-31.85834 C 69.686574,105.76712 47.653416,106.43393 47.653416,106.43393"
       id="path1556" />
    <path
       style="fill:none;stroke:#000000;stroke-width:0.5;stroke-linecap:butt;stroke-linejoin:miter;stroke-miterlimit:4;stroke-dasharray:none;stroke-opacity:1;marker-end:url(#marker1614)"
       d="m 45.943972,125.55515 c 0,0 39.569646,1.01601 55.441038,-14.85538 15.8714,-15.871395 23.408,-34.518183 23.408,-34.518183"
       id="path1610" />
    <path
       style="fill:none;stroke:#000000;stroke-width:0.5;stroke-linecap:butt;stroke-linejoin:miter;stroke-miterlimit:4;stroke-dasharray:none;stroke-opacity:1;marker-end:url(#marker1674)"
       d="m 45.943972,125.55515 c 0,0 10.700562,19.88521 32.431675,32.43168 21.731113,12.54646 40.659743,9.58628 40.659743,9.58628"
       id="path1670" />
  </g>
</svg>
